<?xml version="1.0" encoding="UTF-8" standalone="no"?>
<svg
   width="48"
   height="48"
   viewBox="0 0 64 64"
   role="img"
   aria-label="YC"
   version="1.1"
   id="svg6"
   xmlns="http://www.w3.org/2000/svg"
   xmlns:svg="http://www.w3.org/2000/svg">
  <defs
     id="defs5">
    <linearGradient
       id="g"
       x1="8"
       y1="6"
       x2="56"
       y2="58"
       gradientUnits="userSpaceOnUse">
      <stop
         offset="0"
         stop-color="#F4D28A"
         id="stop1" />
      <stop
         offset="0.55"
         stop-color="#C99A42"
         id="stop2" />
      <stop
         offset="1"
         stop-color="#8F6A2A"
         id="stop3" />
    </linearGradient>
    <radialGradient
       id="b"
       cx="35%"
       cy="25%"
       r="85%">
      <stop
         offset="0"
         stop-color="#1E293B"
         id="stop4" />
      <stop
         offset="1"
         stop-color="#0B1120"
         id="stop5" />
    </radialGradient>
  </defs>
  <path
     id="rect5"
     style="fill:url(#b)"
     d="m 16,0 h 32 c 8.864,0 16,7.136 16,16 v 32 c 0,8.864 -7.136,16 -16,16 H 16 C 7.136,64 0,56.864 0,48 V 16 C 0,7.136 7.136,0 16,0 Z" />
  <path
     id="circle5"
     style="fill:none;stroke:url(#g);stroke-width:3.2"
     d="M 57.5,32 A 25.5,25.5 0 0 1 32,57.5 25.5,25.5 0 0 1 6.5,32 25.5,25.5 0 0 1 32,6.5 25.5,25.5 0 0 1 57.5,32 Z" />
  <path
     id="circle6"
     style="fill:none;stroke:#f8efd8;stroke-opacity:0.14"
     d="M 53,32 A 21,21 0 0 1 32,53 21,21 0 0 1 11,32 21,21 0 0 1 32,11 21,21 0 0 1 53,32 Z" />
  <path
     d="m 22.51958,39 h 4.514649 v -5.817383 l 6.053222,-10.916015 h -5.312012 l -2.257324,5.05371 c -0.280761,0.617676 -0.505371,1.235352 -0.71875,1.931641 -0.23584,-0.696289 -0.471679,-1.313965 -0.763672,-1.931641 l -2.41455,-5.05371 H 16.28667 l 6.23291,10.916015 z m 17.366114,0.224609 c 4.907715,0 7.389648,-3.481445 7.614258,-6.333984 h -4.604493 c -0.224609,1.42627 -1.235351,2.380859 -2.897461,2.380859 -2.223632,0 -3.503906,-1.561035 -3.503906,-4.626953 0,-2.919922 1.246582,-4.649414 3.526367,-4.649414 1.684571,0 2.672852,0.95459 2.852539,2.38086 h 4.604493 c -0.415528,-4.042969 -3.425293,-6.333985 -7.591797,-6.333985 -4.503418,0 -8.063477,3.009766 -8.063477,8.602539 0,5.559082 3.470215,8.580078 8.063477,8.580078 z"
     id="text6"
     style="font-weight:900;font-size:23px;font-family:Manrope, Inter, Arial, Helvetica, sans-serif;letter-spacing:-1.4;text-anchor:middle;fill:#f8efd8"
     aria-label="YC" />
</svg>
