<?xml version="1.0" encoding="UTF-8" standalone="no"?>
<svg
   viewBox="0 0 520 120"
   role="img"
   aria-labelledby="title desc"
   version="1.1"
   id="svg3"
   xmlns="http://www.w3.org/2000/svg"
   xmlns:svg="http://www.w3.org/2000/svg">
  <defs
     id="defs3" />
  <title
     id="title">Yuki Cordero monochrome logo</title>
  <desc
     id="desc">Single-color YC monogram and wordmark. Set color with CSS currentColor.</desc>
  <g
     fill="none"
     stroke="currentColor"
     stroke-width="4"
     id="g1">
    <path
       id="rect1"
       d="m 32,2 h 56 c 16.62,0 30,13.38 30,30 v 56 c 0,16.62 -13.38,30 -30,30 H 32 C 15.38,118 2,104.62 2,88 V 32 C 2,15.38 15.38,2 32,2 Z" />
    <path
       id="circle1"
       d="M 105,60 A 45,45 0 0 1 60,105 45,45 0 0 1 15,60 45,45 0 0 1 60,15 45,45 0 0 1 105,60 Z" />
  </g>
  <path
     d="M 44.030176,70 H 51.48916 V 60.388672 L 61.490137,42.353516 H 52.71377 l -3.729493,8.349609 c -0.463867,1.020508 -0.834961,2.041016 -1.1875,3.191406 -0.389648,-1.15039 -0.779297,-2.170898 -1.261718,-3.191406 l -3.989258,-8.349609 h -8.813477 l 10.297852,18.035156 z m 29.304882,0.371094 c 8.108398,0 12.208984,-5.751953 12.580078,-10.464844 h -7.607422 c -0.371094,2.356445 -2.041016,3.933594 -4.787109,3.933594 -3.673828,0 -5.789063,-2.579102 -5.789063,-7.644532 0,-4.824218 2.059571,-7.68164 5.826172,-7.68164 2.783203,0 4.416016,1.577148 4.712891,3.933594 h 7.607422 c -0.686524,-6.679688 -5.65918,-10.464844 -12.542969,-10.464844 -7.44043,0 -13.322266,4.972656 -13.322266,14.21289 0,9.184571 5.733399,14.175782 13.322266,14.175782 z"
     id="text1"
     style="font-weight:900;font-size:38px;font-family:Manrope, Inter, Arial, Helvetica, sans-serif;letter-spacing:-1.7;text-anchor:middle"
     aria-label="YC" />
  <path
     d="m 157.09717,54 h 6.08496 v -7.84082 l 8.15869,-14.712891 h -7.15967 l -3.04248,6.811523 c -0.37842,0.83252 -0.68115,1.66504 -0.96875,2.603516 -0.31787,-0.938476 -0.63574,-1.770996 -1.0293,-2.603516 l -3.25439,-6.811523 h -7.18994 l 8.40088,14.712891 z m 20.46113,0.211914 c 2.89111,0 4.49561,-1.725586 5.32813,-4.026367 L 182.99238,54 h 5.70655 V 37.077148 h -6.08497 v 9.50586 c 0,1.680176 -0.95361,2.694336 -2.45214,2.694336 -1.52881,0 -2.42188,-1.01416 -2.42188,-2.694336 v -9.50586 h -6.08496 v 10.777344 c 0,3.69336 2.31592,6.357422 5.90332,6.357422 z M 191.08681,54 h 6.08497 v -4.813477 l 0.9082,-1.15039 L 201.53115,54 h 6.93262 l -5.90332,-9.505859 5.75195,-7.416993 h -6.8418 l -4.08691,5.691407 h -0.21191 V 31.446289 h -6.08497 z m 18.09981,0 h 6.08496 V 37.077148 h -6.08496 z m 3.02735,-18.648438 c 1.6499,0 2.99707,-1.24121 2.99707,-2.785156 0,-1.543945 -1.34717,-2.785156 -2.99707,-2.785156 -1.64991,0 -2.99707,1.241211 -2.99707,2.785156 0,1.543946 1.34716,2.785156 2.99707,2.785156 z m 21.30507,18.951172 c 6.61475,0 9.95996,-4.692382 10.2627,-8.537109 h -6.20606 c -0.30273,1.922363 -1.66504,3.208984 -3.90527,3.208984 -2.99707,0 -4.72266,-2.104004 -4.72266,-6.236328 0,-3.935547 1.68018,-6.266601 4.75293,-6.266601 2.27051,0 3.60254,1.286621 3.84473,3.208984 h 6.20605 c -0.56005,-5.449219 -4.61669,-8.537109 -10.23242,-8.537109 -6.06982,0 -10.86816,4.05664 -10.86816,11.594726 0,7.492676 4.67724,11.564453 10.86816,11.564453 z m 20.24922,0 c 5.49463,0 8.73389,-3.511718 8.73389,-8.71875 0,-5.191894 -3.23926,-8.71875 -8.73389,-8.71875 -5.5249,0 -8.76416,3.526856 -8.76416,8.71875 0,5.207032 3.23926,8.71875 8.76416,8.71875 z m 0,-4.541015 c -1.60449,0 -2.5581,-1.559082 -2.5581,-4.208008 0,-2.664063 0.95361,-4.147461 2.5581,-4.147461 1.57422,0 2.52784,1.483398 2.52784,4.147461 0,2.648926 -0.95362,4.208008 -2.52784,4.208008 z M 264.28457,54 h 6.08496 v -8.80957 c 0,-1.9375 1.31689,-3.208985 3.11816,-3.208985 0.62061,0 1.63477,0.09082 2.24024,0.302735 v -5.176758 c -0.48438,-0.151367 -1.01416,-0.242188 -1.54395,-0.242188 -1.80127,0 -3.20898,1.059571 -3.81445,3.451172 h -0.18164 v -3.239258 h -5.90332 z m 17.82735,0.211914 c 2.37646,0 3.99609,-1.271484 4.69238,-2.99707 h 0.15137 V 54 h 6.02441 V 31.446289 h -6.08496 v 8.597656 h -0.0908 c -0.65088,-1.725586 -2.24024,-3.178711 -4.75293,-3.178711 -3.34522,0 -6.59961,2.558106 -6.59961,8.688477 0,5.842773 3.04248,8.658203 6.66016,8.658203 z m 2.24023,-4.662109 c -1.68018,0 -2.63379,-1.498535 -2.63379,-3.996094 0,-2.512695 0.95361,-4.026367 2.63379,-4.026367 1.66504,0 2.69434,1.513672 2.69434,4.026367 0,2.452148 -1.0293,3.996094 -2.69434,3.996094 z m 19.1291,4.752929 c 4.31396,0 7.15966,-1.907226 8.02246,-4.949707 l -5.3584,-0.787109 c -0.36328,0.938477 -1.30176,1.468262 -2.54297,1.468262 -1.68018,0 -2.80029,-0.999024 -2.87598,-3.087891 h 11.01954 v -1.392578 c 0,-5.388672 -3.29981,-8.688477 -8.41602,-8.688477 -5.2373,0 -8.56738,3.481446 -8.56738,8.71875 0,5.479493 3.28466,8.71875 8.71875,8.71875 z m -2.70948,-10.686523 c 0.18164,-1.604492 1.07471,-2.482422 2.61866,-2.482422 1.54394,0 2.43701,0.87793 2.61865,2.482422 z M 313.46777,54 h 6.08496 v -8.80957 c 0,-1.9375 1.3169,-3.208985 3.11817,-3.208985 0.6206,0 1.63476,0.09082 2.24023,0.302735 v -5.176758 c -0.48437,-0.151367 -1.01416,-0.242188 -1.54394,-0.242188 -1.80127,0 -3.20899,1.059571 -3.81446,3.451172 h -0.18164 v -3.239258 h -5.90332 z m 19.93135,0.302734 c 5.49463,0 8.73389,-3.511718 8.73389,-8.71875 0,-5.191894 -3.23926,-8.71875 -8.73389,-8.71875 -5.5249,0 -8.76416,3.526856 -8.76416,8.71875 0,5.207032 3.23926,8.71875 8.76416,8.71875 z m 0,-4.541015 c -1.60449,0 -2.5581,-1.559082 -2.5581,-4.208008 0,-2.664063 0.95361,-4.147461 2.5581,-4.147461 1.57422,0 2.52784,1.483398 2.52784,4.147461 0,2.648926 -0.95362,4.208008 -2.52784,4.208008 z"
     id="text2"
     style="font-weight:900;font-size:31px;font-family:Manrope, Inter, Arial, Helvetica, sans-serif;letter-spacing:-0.7"
     aria-label="Yuki Cordero" />
  <path
     d="m 150.32129,82 h 2.67969 l 0.66308,-2.166992 h 3.39063 L 157.74512,82 h 2.70703 l -3.5,-10.185547 h -3.2334 z m 3.91016,-4.012695 0.13671,-0.4375 c 0.33496,-1.155274 0.63575,-2.44043 0.94336,-3.814453 0.32813,1.367187 0.66309,2.652343 1.01856,3.814453 l 0.13672,0.4375 z m 11.39804,-6.172852 h -2.41308 V 82 h 2.41308 z M 173.10625,82 h 2.67969 l 0.66308,-2.166992 h 3.39063 L 180.53008,82 h 2.70703 l -3.5,-10.185547 h -3.2334 z m 3.91016,-4.012695 0.13672,-0.4375 c 0.33496,-1.155274 0.63574,-2.44043 0.94336,-3.814453 0.32812,1.367187 0.66308,2.652343 1.01855,3.814453 l 0.13672,0.4375 z m 13.00449,4.142578 c 2.56347,0 4.2998,-1.469727 4.2998,-3.746094 v -6.569336 h -2.41308 v 6.371094 c 0,1.073242 -0.75879,1.838867 -1.88672,1.838867 -1.11426,0 -1.87989,-0.765625 -1.87989,-1.838867 v -6.371094 h -2.41308 v 6.569336 c 0,2.276367 1.71582,3.746094 4.29297,3.746094 z m 7.19394,-8.34668 h 3.08301 V 82 h 2.40625 v -8.216797 h 3.08301 v -1.96875 h -8.57227 z m 15.6295,8.353516 c 2.72754,0 4.83984,-1.866211 4.83984,-5.222657 0,-3.363281 -2.1123,-5.236328 -4.83984,-5.236328 -2.74121,0 -4.85352,1.873047 -4.85352,5.236328 0,3.342774 2.11231,5.222657 4.85352,5.222657 z m 0,-2.119141 c -1.4834,0 -2.38574,-1.09375 -2.38574,-3.103516 0,-2.016601 0.90234,-3.117187 2.38574,-3.117187 1.47656,0 2.3789,1.09375 2.3789,3.117187 0,2.009766 -0.90234,3.103516 -2.3789,3.103516 z M 220.69453,82 h 2.41993 v -4.388672 c 0,-0.758789 -0.0615,-2.358398 -0.0889,-3.698242 0.34863,1.435547 0.76562,2.946289 1.00488,3.698242 L 225.5002,82 h 2.0166 l 1.44922,-4.388672 c 0.24609,-0.779297 0.67676,-2.358398 1.01172,-3.814453 -0.0274,1.374023 -0.0889,3.041992 -0.0889,3.814453 V 82 h 2.42676 V 71.814453 h -3.7666 l -1.27832,3.964844 c -0.20508,0.697265 -0.51954,2.160156 -0.75196,3.376953 -0.23925,-1.216797 -0.55371,-2.679688 -0.76562,-3.376953 l -1.29883,-3.964844 h -3.75977 z m 14.38535,0 h 2.67969 l 0.66308,-2.166992 h 3.39063 L 242.50371,82 h 2.70703 l -3.5,-10.185547 h -3.2334 z m 3.91016,-4.012695 0.13671,-0.4375 c 0.33497,-1.155274 0.63575,-2.44043 0.94336,-3.814453 0.32813,1.367187 0.66309,2.652343 1.01856,3.814453 l 0.13672,0.4375 z m 7.37851,-4.204102 h 3.08301 V 82 h 2.40625 v -8.216797 h 3.08301 v -1.96875 h -8.57227 z m 13.8795,-1.96875 h -2.41309 V 82 h 2.41309 z m 7.85703,10.322266 c 2.72754,0 4.83984,-1.866211 4.83984,-5.222657 0,-3.363281 -2.1123,-5.236328 -4.83984,-5.236328 -2.74121,0 -4.85352,1.873047 -4.85352,5.236328 0,3.342774 2.11231,5.222657 4.85352,5.222657 z m 0,-2.119141 c -1.4834,0 -2.38574,-1.09375 -2.38574,-3.103516 0,-2.016601 0.90234,-3.117187 2.38574,-3.117187 1.47656,0 2.37891,1.09375 2.37891,3.117187 0,2.009766 -0.90235,3.103516 -2.37891,3.103516 z M 275.95528,82 h 2.47461 v -4.217773 c 0,-0.642579 -0.0684,-1.75 -0.15039,-2.959961 0.56738,1.216796 0.94335,1.982421 1.54492,2.959961 L 282.42891,82 h 2.65918 V 71.814453 h -2.47461 v 4.333984 c 0,0.710938 0.0752,1.879883 0.14355,2.898438 -0.43066,-1.107422 -0.85449,-1.879883 -1.30566,-2.631836 l -2.84375,-4.600586 h -2.65234 z m 19.35078,-2.905273 c 1.20996,0 2.1875,-0.97754 2.1875,-2.1875 0,-1.209961 -0.97754,-2.1875 -2.1875,-2.1875 -1.20996,0 -2.1875,0.977539 -2.1875,2.1875 0,1.20996 0.97754,2.1875 2.1875,2.1875 z m 9.883,-5.311524 h 3.083 V 82 h 2.40625 v -8.216797 h 3.08301 v -1.96875 h -8.57226 z M 316.65547,82 h 7.06153 v -1.96875 h -4.64844 v -2.214844 h 4.28613 v -1.927734 h -4.28613 v -2.105469 h 4.65527 v -1.96875 h -7.06836 z m 14.775,0.136719 c 2.76855,0 4.32031,-1.914063 4.50488,-3.732422 h -2.44043 c -0.1709,0.991211 -0.92285,1.613281 -2.0166,1.613281 -1.46289,0 -2.39942,-1.05957 -2.39942,-3.103516 0,-1.975585 0.91602,-3.117187 2.41309,-3.117187 1.09375,0 1.83887,0.62207 1.99609,1.613281 h 2.44043 c -0.28027,-2.37207 -2.07812,-3.732422 -4.49804,-3.732422 -2.71387,0 -4.81934,1.873047 -4.81934,5.236328 0,3.342774 2.06445,5.222657 4.81934,5.222657 z M 338.90469,82 h 2.41309 v -4.217773 h 4.06738 V 82 h 2.40625 V 71.814453 h -2.40625 v 3.999024 h -4.06738 v -3.999024 h -2.41309 z m 19.8703,0 h 3.22657 l 3.40429,-10.185547 h -2.67968 l -1.36036,4.450195 c -0.34179,1.16211 -0.64941,2.399414 -0.96386,3.759766 -0.32813,-1.353516 -0.64942,-2.604492 -0.99805,-3.759766 l -1.41504,-4.450195 h -2.71387 z m 7.76134,0 h 2.67969 l 0.66308,-2.166992 h 3.39063 L 373.96016,82 h 2.70703 l -3.5,-10.185547 h -3.2334 z m 3.91016,-4.012695 0.13672,-0.4375 c 0.33496,-1.155274 0.63574,-2.44043 0.94336,-3.814453 0.32812,1.367187 0.66308,2.652343 1.01855,3.814453 l 0.13672,0.4375 z"
     id="text3"
     style="font-weight:800;font-size:14px;font-family:Inter, Arial, Helvetica, sans-serif;letter-spacing:1.65;opacity:0.5184"
     aria-label="AI AUTOMATION • TECH VA" />
</svg>
